<svg width="271" height="35" viewBox="0 0 271 35" fill="none" xmlns="http://www.w3.org/2000/svg">
<path d="M1.51562 32.8281V28.8438C5.03125 30.0938 8.82812 30.7188 12.9062 30.7188C18.6719 30.7188 21.5547 28.6094 21.5547 24.3906C21.5547 20.7969 19.4297 19 15.1797 19H10.8672C3.85156 19 0.34375 15.9531 0.34375 9.85938C0.34375 3.45313 4.83594 0.25 13.8203 0.25C17.7266 0.25 21.3594 0.71875 24.7188 1.65625V5.64062C21.3594 4.39063 17.7266 3.76562 13.8203 3.76562C7.72656 3.76562 4.67969 5.79688 4.67969 9.85938C4.67969 13.4531 6.74219 15.25 10.8672 15.25H15.1797C22.3203 15.25 25.8906 18.2969 25.8906 24.3906C25.8906 30.9531 21.5625 34.2344 12.9062 34.2344C8.82812 34.2344 5.03125 33.7656 1.51562 32.8281ZM31.75 34V9.39062H34.6797L35.4062 12.4844C37.7656 10.4219 40.3359 9.39062 43.1172 9.39062C46.6797 9.39062 49.1094 10.5156 50.4062 12.7656C53.0781 10.5156 55.7891 9.39062 58.5391 9.39062C64.1953 9.39062 67.0234 12.5078 67.0234 18.7422V34H62.6875V18.5078C62.6875 14.8359 61.1406 13 58.0469 13C55.7344 13 53.5703 14.0625 51.5547 16.1875V34H47.2188V18.5781C47.2188 14.8594 45.6875 13 42.625 13C40.1875 13 38.0078 14.0625 36.0859 16.1875V34H31.75ZM72.9062 26.5703C72.9062 21.5234 76.2344 19 82.8906 19C85.0312 19 87.1719 19.1562 89.3125 19.4688V17.1484C89.3125 14.3203 87.1016 12.9062 82.6797 12.9062C80.1484 12.9062 77.5547 13.2969 74.8984 14.0781V10.5625C77.5547 9.78125 80.1484 9.39062 82.6797 9.39062C89.9922 9.39062 93.6484 11.9375 93.6484 17.0312V34H91.2109L89.7109 31.5625C87.2578 33.1875 84.5859 34 81.6953 34C75.8359 34 72.9062 31.5234 72.9062 26.5703ZM82.8906 22.5156C79.125 22.5156 77.2422 23.8438 77.2422 26.5C77.2422 29.1562 78.7266 30.4844 81.6953 30.4844C84.6953 30.4844 87.2344 29.6875 89.3125 28.0938V22.9844C87.1719 22.6719 85.0312 22.5156 82.8906 22.5156ZM100.703 34V9.39062H103.633L104.406 12.5312C106.562 10.4375 109.156 9.39062 112.188 9.39062V13C109.25 13 106.867 14.0391 105.039 16.1172V34H100.703ZM116.547 5.40625H119.266L120.203 9.39062H126.859V12.9062H120.883V27.0391C120.883 29.3359 121.875 30.4844 123.859 30.4844H126.859V34H122.734C118.609 34 116.547 31.7891 116.547 27.3672V5.40625Z" fill="#466995"/>
<path d="M132.859 34V0.484375H137.195V15.25H157V0.484375H161.336V34H157V18.7656H137.195V34H132.859ZM179.008 9.39062C186.008 9.39062 189.508 12.8516 189.508 19.7734C189.508 20.7578 189.438 21.8125 189.297 22.9375H172.023C172.023 27.9688 174.961 30.4844 180.836 30.4844C183.633 30.4844 186.117 30.1719 188.289 29.5469V33.0625C186.117 33.6875 183.477 34 180.367 34C171.914 34 167.688 29.8047 167.688 21.4141C167.688 13.3984 171.461 9.39062 179.008 9.39062ZM172.023 19.3281H185.336C185.242 15.0156 183.133 12.8594 179.008 12.8594C174.633 12.8594 172.305 15.0156 172.023 19.3281ZM194.172 26.5703C194.172 21.5234 197.5 19 204.156 19C206.297 19 208.438 19.1562 210.578 19.4688V17.1484C210.578 14.3203 208.367 12.9062 203.945 12.9062C201.414 12.9062 198.82 13.2969 196.164 14.0781V10.5625C198.82 9.78125 201.414 9.39062 203.945 9.39062C211.258 9.39062 214.914 11.9375 214.914 17.0312V34H212.477L210.977 31.5625C208.523 33.1875 205.852 34 202.961 34C197.102 34 194.172 31.5234 194.172 26.5703ZM204.156 22.5156C200.391 22.5156 198.508 23.8438 198.508 26.5C198.508 29.1562 199.992 30.4844 202.961 30.4844C205.961 30.4844 208.5 29.6875 210.578 28.0938V22.9844C208.438 22.6719 206.297 22.5156 204.156 22.5156ZM226.539 0.484375V34H222.203V0.484375H226.539ZM233.828 5.40625H236.547L237.484 9.39062H244.141V12.9062H238.164V27.0391C238.164 29.3359 239.156 30.4844 241.141 30.4844H244.141V34H240.016C235.891 34 233.828 31.7891 233.828 27.3672V5.40625ZM249.672 34V0.484375H254.008V12.0625C256.102 10.2812 258.656 9.39062 261.672 9.39062C267.812 9.39062 270.883 12.4453 270.883 18.5547V34H266.547V18.4844C266.547 14.8281 264.727 13 261.086 13C258.602 13 256.242 14.0391 254.008 16.1172V34H249.672Z" fill="#DB504A"/>
</svg>
